<svg id="Capa_1" data-name="Capa 1" xmlns="http://www.w3.org/2000/svg" viewBox="0 0 292.31 265.04">
    <defs>
        <style>.cls-1{fill:#0a8edb;}</style>
    </defs>
    <path class="cls-1"
          d="M153.92,484.56c8.73-19.12,26.18-27.34,44.34-34.65a79.91,79.91,0,0,1,10.79-3.71c3-.75,3.69-2.21,3-5a154.18,154.18,0,0,1-5.15-36.83c-.15-9.77,1.31-19.16,6-27.82,6.77-12.58,18.84-17.49,34.91-14.09A9.4,9.4,0,0,0,256,361a17.25,17.25,0,0,1,21.19,1.53A17.76,17.76,0,0,1,281.1,383c-3.36,6.9-11.3,11-18.52,9.69-8.07-1.51-14-7.57-14.44-15.51-.18-3-1.28-3.93-3.93-4.55-11.06-2.61-19.81,1.8-24.05,12.33-4.82,12-4.09,24.37-2.6,36.76.69,5.75,2,11.42,3,17.12.44,2.58,1.64,3.66,4.42,2.94A270.23,270.23,0,0,1,265,435l1-1c15.23-20.87,37.14-44,58.94-58.42,7.38-4.86,15.22-8.81,24-10.42,16.67-3.05,29,4.76,33.55,21.14,4.49,16.08,3.32,32.11-.43,48.12-2,8.57-2,8.59,6.4,11.17,14.35,4.41,28.1,10.08,40,19.51,6.75,5.35,12.27,11.8,14.5,20.31,3,11.57-1.25,21.2-9,29.49a8.49,8.49,0,0,0-2.69,7c.57,10.13-5.89,17.87-15.2,18.67-9.87.86-18.12-5.61-19.43-15.21-1.27-9.42,5.23-17.68,15.21-19.39a16.21,16.21,0,0,1,9.4,1.49,5.23,5.23,0,0,0,5.6-.83c7.4-6.72,8.82-16.28,3.4-24.71a43.93,43.93,0,0,0-11.82-11.95c-11.08-7.88-23.54-12.77-36.37-16.9-2.87-.92-4.54-.46-5.48,2.8C372.87,468.47,364.8,488.28,362,495h0c10.53,23.34,19.72,50.34,22,76.1.88,10,.49,19.92-2.67,29.51-5.12,15.46-18.23,22.66-34.08,18.84-15.41-3.71-28.11-12.35-40-22.43-9.21-7.84-9-7.79-18.13.23-12.63,11.16-26,21.3-42.95,24.91-17.79,3.79-31.46-4.34-36.88-21.84a9.41,9.41,0,0,0-5.77-6.61c-7.13-3.14-10.53-10.67-9.07-18.65a17.49,17.49,0,0,1,33.32-3.76c2.94,7.16,1.18,16-5.07,20.17-4,2.66-3.64,4.95-2.08,8.58,4.75,11.08,13.06,15,26,11.64,14.69-3.85,26.44-12.81,37.7-22.45,7.33-6.27,7.25-6.4,1-13.56C278.17,567.5,269,556,262,547h0a28.85,28.85,0,0,0-4.11-.79c-25.31-2.71-50.23-7.15-73.37-18.44C170,520.66,152.15,505.76,152,498,151,495,152,489,153.92,484.56ZM257,543h1s1,0,1.44,0c-8.63-13.93-17.55-27.69-24.8-42.42-.35-.72-1.21-2.9-2-1.43-12.06,21.84-9,14.66-1.07-1.13,1.32-2.64-.37-4.1-1.31-6.45C226,481,222,472,218.22,462.19c-4.11-11.72-4-11.76-16-7.51-13.67,4.85-26.84,10.6-37.12,21.33-8.49,8.87-11.5,19.6-3.08,29,4.68,7.13,11.68,12.51,19,16.52C205.22,534.81,229.72,540.36,257,543Zm101-55c5.77-11.47,9.22-24.05,13.18-35.24,1-2.92-1.08-2.82-2.78-3.31-15.26-4.36-31-5.94-46.68-7.38-17.48-1.6-39.16-.39-56.72.93h0c-8.56,12.64-18.34,28.29-25.63,41.67-1.55,2.86-1.64,2.56-.37,5.33,7.69,16.75,18,39,30,54h0c14.12,2.82,39.61,2,54,2l2-2c12-17,20.85-33.28,29.13-49.54A35.86,35.86,0,0,0,356,491c-3-6-41-69-44-76C319,421,353,481,358,488Zm-37.38-58.33c3.38,2.33,4.26,4.58,8.73,5.26,13.54,2.05,27,2.59,40.22,5.84,3.44.85,5.08,0,5.81-3.62,1.53-7.46,3.28-14.9,3.86-22.49.79-10.25,1-20.55-2.77-30.41-4.2-11.09-12.07-16.05-23.87-15.25-8.52.58-16,4.07-23.14,8.35-23.4,14.1-41.37,33.92-57.57,55.52-.26.35-1.89,2.13-1.89,2.13s2.14-.29,2.38-.31c15.88-1.43,31.78-1,47.67-.65C324.64,434.14,321.81,431.81,320.62,429.67ZM353,546c-2.23,1.52-21,1-21,1-9,11-18,23-27.76,35.27-1.12,1.16-2,2.21-.39,3.72,13.27,12.43,27,24.17,45.22,28.77,12.19,3.07,21.57-1.58,26.94-13,3.16-6.72,4.24-13.91,4.47-21.24.51-15.74-3.08-30.89-7-45.94a217.47,217.47,0,0,0-13.28-36.57c-7.65,15.76-18,33-27.2,46.95C333,545,351.6,545.41,353,546ZM261.77,442.74c-13,.73-24.65,3.15-36.34,5.24-2.18.39-1.7,2-1.36,3.53A150.23,150.23,0,0,0,236,484l1,2c1.21-3.08,4.48-9.06,6-12C248.47,463.46,254.92,453.89,261.77,442.74Zm9.83,104.63c6.56,10.17,13.94,18.58,21.08,27.18,2.62,3.15,4.59,2.94,7.07-.07,6.4-7.78,13-15.43,19.38-23.2.84-1,1.87-2.28,2.87-3.28A307.43,307.43,0,0,1,271.6,547.37Z"
          transform="translate(-151.61 -358.04)"/>
    <path class="cls-1"
          d="M322.89,492.55c-.09,14.61-11.34,25.89-25.79,25.86C282,518.38,270.76,507,271,491.84a25.87,25.87,0,0,1,26.14-25.71C311.71,466.22,323,477.76,322.89,492.55Z"
          transform="translate(-151.61 -358.04)"/>
</svg>